<?xml version="1.0" encoding="UTF-8"?>
<svg version="1.1" xmlns="http://www.w3.org/2000/svg" width="24" height="24">
<path d="M0 0 C7.92 0 15.84 0 24 0 C24 7.92 24 15.84 24 24 C16.08 24 8.16 24 0 24 C0 16.08 0 8.16 0 0 Z " fill="#717EA7" transform="translate(0,0)"/>
<path d="M0 0 C4.62 0 9.24 0 14 0 C14 7.92 14 15.84 14 24 C8.39 24 2.78 24 -3 24 C-3.33 23.34 -3.66 22.68 -4 22 C-3.34 22 -2.68 22 -2 22 C-1.67 19.36 -1.34 16.72 -1 14 C-0.01 14 0.98 14 2 14 C1.67 13.34 1.34 12.68 1 12 C4.81684226 13.55500981 7.19195732 16.03595495 10 19 C12.10306598 15.58251778 12.40603518 12.97914475 12 9 C11.2081584 6.17891059 11.2081584 6.17891059 9 4 C6.07150097 2.70190646 3.09855219 1.79899773 0 1 C0 0.67 0 0.34 0 0 Z " fill="#718CAC" transform="translate(10,0)"/>
<path d="M0 0 C3.34384897 1.17486585 5.85154931 2.117932 8 5 C7.85546875 7.26171875 7.85546875 7.26171875 7.1875 9.6875 C6.97480469 10.49574219 6.76210938 11.30398438 6.54296875 12.13671875 C6.27419922 13.05904297 6.27419922 13.05904297 6 14 C4 13 2 12 0 11 C0.33 11.66 0.66 12.32 1 13 C-0.32 12.67 -1.64 12.34 -3 12 C-3.66 14.31 -4.32 16.62 -5 19 C-8.875 17.125 -8.875 17.125 -10 16 C-10.5936444 11.2897723 -10.63528961 7.97278721 -8 3.9375 C-7.34 3.298125 -6.68 2.65875 -6 2 C-0.50847458 2.61016949 -0.50847458 2.61016949 1.875 4.4375 C3 6 3 6 3 8 C3.66 8 4.32 8 5 8 C4.80528889 6.05000871 4.80528889 6.05000871 4 4 C2.0162233 2.71563266 2.0162233 2.71563266 0 2 C0 1.34 0 0.68 0 0 Z " fill="#175C88" transform="translate(13,3)"/>
<path d="M0 0 C3.34384897 1.17486585 5.85154931 2.117932 8 5 C7.85546875 7.26171875 7.85546875 7.26171875 7.1875 9.6875 C6.97480469 10.49574219 6.76210938 11.30398438 6.54296875 12.13671875 C6.27419922 13.05904297 6.27419922 13.05904297 6 14 C4 13 2 12 0 11 C0.33 11.66 0.66 12.32 1 13 C-1.97 12.505 -1.97 12.505 -5 12 C-5 11.34 -5 10.68 -5 10 C-5.66 10 -6.32 10 -7 10 C-7 9.34 -7 8.68 -7 8 C-3.7 7.34 -0.4 6.68 3 6 C3 6.66 3 7.32 3 8 C3.66 8 4.32 8 5 8 C4.80528889 6.05000871 4.80528889 6.05000871 4 4 C2.0162233 2.71563266 2.0162233 2.71563266 0 2 C0 1.34 0 0.68 0 0 Z " fill="#1C3F66" transform="translate(13,3)"/>
<path d="M0 0 C3.64413322 0.20245185 4.8197988 0.81031452 7.375 3.5 C9.39738829 7.85591324 9.52934228 11.4211309 8 16 C7.01 16.66 6.02 17.32 5 18 C3.90101298 14.70303895 4.12875556 13.59505097 4.9375 10.3125 C5.13214844 9.50425781 5.32679687 8.69601562 5.52734375 7.86328125 C5.76130859 6.94095703 5.76130859 6.94095703 6 6 C5.01 5.195625 4.02 4.39125 3 3.5625 C2.01 2.716875 1.02 1.87125 0 1 C0 0.67 0 0.34 0 0 Z " fill="#B11D29" transform="translate(14,2)"/>
<path d="M0 0 C0.639375 0.2475 1.27875 0.495 1.9375 0.75 C2.2675 1.74 2.5975 2.73 2.9375 3.75 C0.6275 3.75 -1.6825 3.75 -4.0625 3.75 C-4.0625 4.41 -4.0625 5.07 -4.0625 5.75 C1.3825 4.76 1.3825 4.76 6.9375 3.75 C3.9375 6.75 3.9375 6.75 1.45703125 7.04296875 C0.11705078 6.99076172 0.11705078 6.99076172 -1.25 6.9375 C-2.60158203 6.89689453 -2.60158203 6.89689453 -3.98046875 6.85546875 C-4.66753906 6.82066406 -5.35460937 6.78585938 -6.0625 6.75 C-6.3925 6.09 -6.7225 5.43 -7.0625 4.75 C-6.4025 4.75 -5.7425 4.75 -5.0625 4.75 C-4.93875 4.110625 -4.815 3.47125 -4.6875 2.8125 C-4.48125 2.131875 -4.275 1.45125 -4.0625 0.75 C-2.0625 -0.25 -2.0625 -0.25 0 0 Z " fill="#759CC5" transform="translate(13.0625,17.25)"/>
<path d="M0 0 C-1 3 -1 3 -3.5 5.25 C-6.49526051 8.54478656 -6.74303718 10.6316321 -7 15 C-9 13 -9 13 -9.4375 10.25 C-8.83204968 5.75236904 -7.14884825 4.22382083 -4 1 C-2 0 -2 0 0 0 Z " fill="#A2243B" transform="translate(10,2)"/>
<path d="M0 0 C6.64615385 2.33846154 6.64615385 2.33846154 8.4375 5.6875 C8.7159375 6.8321875 8.7159375 6.8321875 9 8 C6.04335481 9.4783226 3.25770263 9.06032783 0 9 C0 8.34 0 7.68 0 7 C1.98 6.67 3.96 6.34 6 6 C5.67 5.34 5.34 4.68 5 4 C3.35 4 1.7 4 0 4 C0 2.68 0 1.36 0 0 Z " fill="#7A435F" transform="translate(9,14)"/>
<path d="M0 0 C0 0.66 0 1.32 0 2 C-0.66 2 -1.32 2 -2 2 C-2.33 2.66 -2.66 3.32 -3 4 C-2.67 4.99 -2.34 5.98 -2 7 C-4.97 6.505 -4.97 6.505 -8 6 C-8 5.34 -8 4.68 -8 4 C-8.66 4 -9.32 4 -10 4 C-10 3.34 -10 2.68 -10 2 C-8.7090864 1.66376204 -7.41723903 1.33110751 -6.125 1 C-5.40570312 0.814375 -4.68640625 0.62875 -3.9453125 0.4375 C-2 0 -2 0 0 0 Z " fill="#253850" transform="translate(16,9)"/>
<path d="M0 0 C0.99 0 1.98 0 3 0 C3.185625 0.9590625 3.185625 0.9590625 3.375 1.9375 C3.684375 2.9584375 3.684375 2.9584375 4 4 C4.66 4.33 5.32 4.66 6 5 C5.67 5.99 5.34 6.98 5 8 C1.125 6.125 1.125 6.125 0 5 C-0.04063832 3.33382885 -0.042721 1.66611905 0 0 Z " fill="#393559" transform="translate(3,14)"/>
<path d="M0 0 C2.97 0 5.94 0 9 0 C8.401875 0.433125 7.80375 0.86625 7.1875 1.3125 C5.28532054 2.77989559 3.65603529 4.26869038 2 6 C1.34 6.66 0.68 7.32 0 8 C0 5.36 0 2.72 0 0 Z " fill="#B90C11" transform="translate(0,0)"/>
<path d="M0 0 C0.598125 0.763125 1.19625 1.52625 1.8125 2.3125 C3.46959332 4.3483575 5.10297674 6.1978279 7 8 C4.69 8 2.38 8 0 8 C0 5.36 0 2.72 0 0 Z " fill="#281C72" transform="translate(0,16)"/>
<path d="M0 0 C0.8971875 0.5259375 0.8971875 0.5259375 1.8125 1.0625 C1.4825 1.7225 1.1525 2.3825 0.8125 3.0625 C-1.83610427 3.65605614 -4.47947322 3.80459269 -7.1875 4.0625 C-6.375 2.125 -6.375 2.125 -5.1875 0.0625 C-2.1875 -0.9375 -2.1875 -0.9375 0 0 Z " fill="#505F76" transform="translate(13.1875,6.9375)"/>
<path d="M0 0 C2.64 0 5.28 0 8 0 C8 2.31 8 4.62 8 7 C2.25 2.25 2.25 2.25 0 0 Z " fill="#C70909" transform="translate(16,0)"/>
<path d="M0 0 C0.33 0 0.66 0 1 0 C1 2.31 1 4.62 1 7 C-1.31 7 -3.62 7 -6 7 C-5.02433888 5.83040013 -4.044375 4.66438823 -3.0625 3.5 C-2.51722656 2.8503125 -1.97195312 2.200625 -1.41015625 1.53125 C-0.71212891 0.77328125 -0.71212891 0.77328125 0 0 Z " fill="#230F71" transform="translate(23,17)"/>
<path d="M0 0 C0.33 0 0.66 0 1 0 C1.29296875 6.0546875 1.29296875 6.0546875 1 8 C0.01 8.66 -0.98 9.32 -2 10 C-3.39195915 5.82412255 -1.82323219 3.86525224 0 0 Z " fill="#7A0A35" transform="translate(21,10)"/>
<path d="M0 0 C2.86724686 0.57344937 3.8614515 0.8614515 6 3 C5.625 5.125 5.625 5.125 5 7 C3.29115995 5.37660195 1.62553283 3.70680947 0 2 C0 1.34 0 0.68 0 0 Z " fill="#127BA4" transform="translate(13,5)"/>
<path d="M0 0 C1.9375 0.3125 1.9375 0.3125 4 1 C4.33 1.99 4.66 2.98 5 4 C3.02 4 1.04 4 -1 4 C-0.67 2.68 -0.34 1.36 0 0 Z " fill="#9290B8" transform="translate(11,17)"/>
</svg>
